# xmcd
#
# Track frame offsets:
#	150
#	12781
#	29635
#	41885
#	51516
#	62866
#	75877
#	93928
#	104447
#	121667
#	135160
#
# Disc length: 2215 seconds
#
# Revision: 0
# Processed by: cddbd v1.4PL0 Copyright (c) Steve Scherf et al.
# Submitted via: dBpowerAMP V4.0
#
DISCID=8608a50b
DTITLE=Various Artist - Bluestown
DYEAR=1900
DGENRE=
TTITLE0=Glass-Haus Band - Crosscut Saw
TTITLE1=Rocket 88s - Boogie Woogie Baby
TTITLE2=Jimmy Peyton and Midnite Blues - Up the Line
TTITLE3=Hans Olson - Kid Boogie Woogie
TTITLE4=Debby Van Zanen - Treats Your Dauhgter Mean
TTITLE5=Glass Haus Band - Bring Out the Boogie In Me
TTITLE6=Jimmy Peyton and Midnite Blues - I Don't Want No Women
TTITLE7=Harmonica George - Hot Licks Big Lips
TTITLE8=Hans Olson - New Moon Trouble
TTITLE9=Tommy Dukes - Black Belt Women
TTITLE10=Rocket 88s - Chess Blues
EXTD=
EXTT0=
EXTT1=
EXTT2=
EXTT3=
EXTT4=
EXTT5=
EXTT6=
EXTT7=
EXTT8=
EXTT9=
EXTT10=
PLAYORDER=
